<svg xmlns="http://www.w3.org/2000/svg" width="16" height="16" fill="none" viewBox="0 0 16 16" cursor="unset"><g clip-path="url(#402__a)"><path fill="currentColor" d="M10.417 2.62a4.083 4.083 0 0 0-4.083 4.083c0 1.432.71 2.856 1.635 4.087.873 1.162 1.876 2.073 2.448 2.55.571-.477 1.575-1.388 2.447-2.55.925-1.23 1.636-2.655 1.636-4.087a4.083 4.083 0 0 0-4.083-4.083M4.834 6.703a5.583 5.583 0 1 1 11.166 0c0 1.906-.93 3.65-1.937 4.988-1.015 1.351-2.174 2.38-2.774 2.875-.51.419-1.234.419-1.744 0-.6-.494-1.76-1.524-2.775-2.875-1.006-1.339-1.936-3.082-1.936-4.988M0 3.75A.75.75 0 0 1 .75 3h1.508a.75.75 0 1 1 0 1.5H.75A.75.75 0 0 1 0 3.75m10.415 1.977a.976.976 0 1 0 0 1.952.976.976 0 0 0 0-1.952m-2.476.976a2.476 2.476 0 1 1 4.953 0 2.476 2.476 0 0 1-4.953 0M0 7.75A.75.75 0 0 1 .75 7h1.508a.75.75 0 1 1 0 1.5H.75A.75.75 0 0 1 0 7.75m0 4A.75.75 0 0 1 .75 11h1.508a.75.75 0 0 1 0 1.5H.75a.75.75 0 0 1-.75-.75" fill-rule="evenodd" clip-rule="evenodd"></path></g><defs><clipPath id="402__a"><path fill="currentColor" d="M0 0h16v16H0z"></path></clipPath></defs></svg>