<svg xmlns="http://www.w3.org/2000/svg" width="24" height="24" fill="none" viewBox="0 0 24 24" cursor="unset"><path fill="#fff" d="M0 6a6 6 0 0 1 6-6h12a6 6 0 0 1 6 6v12a6 6 0 0 1-6 6H6a6 6 0 0 1-6-6z"></path><g clip-path="url(#450__a)"><path fill="#006BFF" d="M14.416 14.078c-.445.395-1 .886-2.006.886h-.602c-.728 0-1.39-.265-1.865-.745a2.55 2.55 0 0 1-.718-1.807v-.824c0-.696.255-1.338.718-1.807.474-.48 1.137-.744 1.865-.744h.602c1.008 0 1.561.49 2.006.885.461.406.86.762 1.921.762q.244 0 .484-.039l-.004-.01a4 4 0 0 0-.223-.458l-.71-1.23a3.65 3.65 0 0 0-3.157-1.822h-1.42A3.65 3.65 0 0 0 8.15 8.948l-.71 1.23a3.65 3.65 0 0 0 0 3.645l.71 1.23a3.65 3.65 0 0 0 3.157 1.822h1.42a3.65 3.65 0 0 0 3.157-1.823l.71-1.227q.128-.221.223-.459l.004-.009a3 3 0 0 0-.484-.04c-1.061 0-1.46.353-1.921.762"></path><path fill="#006BFF" d="M12.41 9.783h-.602c-1.109 0-1.837.792-1.837 1.805v.824c0 1.013.728 1.805 1.837 1.805h.602c1.615 0 1.488-1.647 3.927-1.647q.348 0 .69.063c.073-.419.073-.847 0-1.266a4 4 0 0 1-.69.063c-2.44 0-2.312-1.647-3.927-1.647"></path><path fill="#006BFF" d="M18.428 13.235a3.4 3.4 0 0 0-1.401-.602v.012q-.066.365-.204.71c.419.065.816.228 1.159.477q0 .005-.004.01a6.245 6.245 0 1 1 0-3.685q0 .006.004.011c-.343.249-.74.412-1.159.477a3.7 3.7 0 0 1 .204.722 3.4 3.4 0 0 0 1.4-.602c.4-.296.323-.63.262-.827a7 7 0 1 0 0 4.124c.06-.197.138-.531-.261-.827"></path><path fill="#0AE8F0" d="M16.821 10.645q-.24.04-.484.04c-1.061 0-1.46-.353-1.92-.762-.445-.394-1-.885-2.007-.885h-.602c-.729 0-1.39.265-1.865.745a2.55 2.55 0 0 0-.718 1.807v.823c0 .697.255 1.339.718 1.808.474.48 1.136.744 1.865.744h.602c1.008 0 1.562-.49 2.006-.885.461-.407.86-.762 1.921-.762q.243 0 .484.038a3.6 3.6 0 0 0 .203-.721 4 4 0 0 0-.689-.063c-2.44 0-2.312 1.647-3.927 1.647h-.602c-1.109 0-1.837-.792-1.837-1.806v-.825c0-1.013.728-1.805 1.837-1.805h.602c1.615 0 1.488 1.647 3.928 1.647q.346 0 .688-.063v-.012a3.7 3.7 0 0 0-.203-.71"></path><path fill="#0AE8F0" d="M16.821 10.645q-.24.04-.484.04c-1.061 0-1.46-.353-1.92-.762-.445-.394-1-.885-2.007-.885h-.602c-.729 0-1.39.265-1.865.745a2.55 2.55 0 0 0-.718 1.807v.823c0 .697.255 1.339.718 1.808.474.48 1.136.744 1.865.744h.602c1.008 0 1.562-.49 2.006-.885.461-.407.86-.762 1.921-.762q.243 0 .484.038a3.6 3.6 0 0 0 .203-.721 4 4 0 0 0-.689-.063c-2.44 0-2.312 1.647-3.927 1.647h-.602c-1.109 0-1.837-.792-1.837-1.806v-.825c0-1.013.728-1.805 1.837-1.805h.602c1.615 0 1.488 1.647 3.928 1.647q.346 0 .688-.063v-.012a3.7 3.7 0 0 0-.203-.71"></path></g><defs><clipPath id="450__a"><path fill="#fff" d="M5 5h13.739v14H5z"></path></clipPath></defs></svg>