<svg xmlns="http://www.w3.org/2000/svg" width="16" height="16" fill="none" viewBox="0 0 16 16" cursor="unset"><g clip-path="url(#525__a)"><path fill="currentColor" d="M10.378 3.001a1.572 1.572 0 1 0 0 3.144 1.572 1.572 0 0 0 0-3.144M7.307 4.573a3.072 3.072 0 1 1 6.143 0 3.072 3.072 0 0 1-6.143 0M0 3.75A.75.75 0 0 1 .75 3h1.5a.75.75 0 0 1 0 1.5H.75A.75.75 0 0 1 0 3.75m0 4A.75.75 0 0 1 .75 7h1.5a.75.75 0 0 1 0 1.5H.75A.75.75 0 0 1 0 7.75m6.253 5.448v-.003zm.044-.2h8.163c-.486-1.795-1.985-3.003-4.082-3.003S6.783 11.203 6.297 13m-1.512-.133c.584-2.597 2.73-4.37 5.593-4.37s5.01 1.773 5.594 4.37c.088.394-.01.79-.208 1.086-.2.297-.57.585-1.069.564a2 2 0 0 1-.153-.014l-.026-.002H6.24l-.021.002-.048.006-.075.008c-.443.039-.843-.16-1.088-.498-.236-.327-.297-.733-.23-1.116zM0 11.75A.75.75 0 0 1 .75 11h1.5a.75.75 0 0 1 0 1.5H.75a.75.75 0 0 1-.75-.75" fill-rule="evenodd" clip-rule="evenodd"></path></g><defs><clipPath id="525__a"><path fill="currentColor" d="M0 0h16v16H0z"></path></clipPath></defs></svg>