<svg xmlns="http://www.w3.org/2000/svg" width="16" height="16" fill="none" viewBox="0 0 16 16" cursor="unset"><path fill="currentColor" d="M8.81 2.51a.25.25 0 0 0-.31.242v10.496a.25.25 0 0 0 .31.243l4.5-1.129a.25.25 0 0 0 .19-.242V3.88a.25.25 0 0 0-.19-.242zM7 2.751a1.75 1.75 0 0 1 2.176-1.698l4.5 1.129A1.75 1.75 0 0 1 15 3.88v8.24a1.75 1.75 0 0 1-1.324 1.697l-4.5 1.129A1.75 1.75 0 0 1 7 13.248zM4.75 2a.75.75 0 0 1 .75.75v10.5a.75.75 0 0 1-1.5 0V2.75A.75.75 0 0 1 4.75 2m-3 1a.75.75 0 0 1 .75.75v8.5a.75.75 0 0 1-1.5 0v-8.5A.75.75 0 0 1 1.75 3" fill-rule="evenodd" clip-rule="evenodd"></path></svg>