<svg xmlns="http://www.w3.org/2000/svg" width="16" height="16" fill="none" viewBox="0 0 16 16" cursor="unset"><path fill="currentColor" d="M1.75 2.5a.25.25 0 0 0-.25.25v10.5c0 .138.112.25.25.25h2.77a.75.75 0 0 1 0 1.5H1.75A1.75 1.75 0 0 1 0 13.25V2.75C0 1.784.784 1 1.75 1h4.16c.53 0 1.03.24 1.363.652l1.01 1.255A.25.25 0 0 0 8.48 3h5.771c.966 0 1.75.783 1.75 1.75v8.5A1.75 1.75 0 0 1 14.25 15h-2.77a.75.75 0 0 1 0-1.5h2.77a.25.25 0 0 0 .25-.25v-8.5a.25.25 0 0 0-.25-.25H8.479c-.53 0-1.031-.24-1.363-.652l-1.01-1.255A.25.25 0 0 0 5.91 2.5zM8 8.503a.75.75 0 0 1 .53.22l2.014 2.014a.75.75 0 0 1-1.06 1.06l-.734-.733v3.186a.75.75 0 0 1-1.5 0v-3.186l-.734.733a.75.75 0 1 1-1.06-1.06L7.47 8.723a.75.75 0 0 1 .53-.22" fill-rule="evenodd" clip-rule="evenodd"></path></svg>