<svg xmlns="http://www.w3.org/2000/svg" width="24" height="24" fill="none" viewBox="0 0 24 24" cursor="unset"><path fill="#FAFAFA" d="M0 6a6 6 0 0 1 6-6h12a6 6 0 0 1 6 6v12a6 6 0 0 1-6 6H6a6 6 0 0 1-6-6z"></path><g clip-path="url(#217__a)"><path fill="#0066DA" d="m5.21 17.252.705 1.219c.147.256.358.458.605.605q1.063-1.35 1.48-2.071.423-.732 1.04-2.291-1.662-.22-2.52-.22-.822 0-2.52.22c0 .284.073.568.22.825z"></path><path fill="#EA4335" d="M17.48 19.076c.248-.147.458-.349.605-.605l.293-.504 1.402-2.428c.147-.257.22-.541.22-.825q-1.707-.22-2.515-.22-.87 0-2.516.22.61 1.567 1.027 2.29.42.73 1.484 2.072"></path><path fill="#00832D" d="M12 9.582q1.23-1.485 1.695-2.291.375-.649.825-2.071a1.6 1.6 0 0 0-.825-.22h-3.39c-.293 0-.578.082-.825.22q.572 1.632.971 2.322.44.764 1.55 2.04"></path><path fill="#2684FC" d="M14.96 14.714H9.04l-2.52 4.362c.248.146.532.22.825.22h9.31c.294 0 .578-.083.825-.22z"></path><path fill="#00AC47" d="M12 9.582 9.48 5.22a1.66 1.66 0 0 0-.605.605L4.22 13.889a1.66 1.66 0 0 0-.22.825h5.04z"></path><path fill="#FFBA00" d="m17.453 9.857-2.328-4.032a1.66 1.66 0 0 0-.605-.605L12 9.582l2.96 5.132h5.031c0-.284-.073-.568-.22-.825z"></path></g><defs><clipPath id="217__a"><path fill="#fff" d="M4 5h16v14.296H4z"></path></clipPath></defs></svg>