<svg xmlns="http://www.w3.org/2000/svg" width="16" height="16" fill="none" viewBox="0 0 16 16" cursor="unset"><path fill="currentColor" d="M8 1a.75.75 0 0 1 .75.75v.5h.75a.8.8 0 0 1 .295.06l1.609.69H15a.75.75 0 0 1 0 1.5h-.834l1.66 4.982c.255.763-.037 1.725-.915 2.073-1.202.476-2.37.476-3.572 0-.878-.348-1.17-1.31-.915-2.073l1.66-4.982h-.834a.8.8 0 0 1-.295-.06l-1.609-.69H8.75v9.75h3a.75.75 0 0 1 0 1.5h-7.5a.75.75 0 0 1 0-1.5h3V3.75h-.596l-1.609.69a.8.8 0 0 1-.295.06h-.834l1.66 4.982c.255.763-.037 1.725-.915 2.073-1.202.476-2.37.476-3.572 0-.878-.348-1.17-1.31-.915-2.073L1.834 4.5H1A.75.75 0 0 1 1 3h3.596l1.609-.69a.8.8 0 0 1 .295-.06h.75v-.5A.75.75 0 0 1 8 1M2.875 6.122 1.597 9.957a.23.23 0 0 0 0 .154c.013.032.029.043.045.05.847.335 1.62.335 2.466 0 .016-.007.032-.018.045-.05a.23.23 0 0 0 0-.154zm10.25 0-1.278 3.835a.23.23 0 0 0 0 .154c.013.032.029.043.045.05.847.335 1.62.335 2.466 0 .016-.007.032-.018.045-.05a.23.23 0 0 0 0-.154z" fill-rule="evenodd" clip-rule="evenodd"></path></svg>