<svg xmlns="http://www.w3.org/2000/svg" width="16" height="16" fill="none" viewBox="0 0 16 16" cursor="unset"><path fill="currentColor" d="M0 12.75c0 .414.336.75.75.75h2.5a.75.75 0 0 0 0-1.5H.75a.75.75 0 0 0-.75.75m6 0c0 .414.336.75.75.75h2.5a.75.75 0 0 0 0-1.5h-2.5a.75.75 0 0 0-.75.75m6 0c0 .414.336.75.75.75h2.5a.75.75 0 0 0 0-1.5h-2.5a.75.75 0 0 0-.75.75m-12-5c0 .414.336.75.75.75h2.5a.75.75 0 0 0 0-1.5H.75a.75.75 0 0 0-.75.75m6 0c0 .414.336.75.75.75h2.5a.75.75 0 0 0 0-1.5h-2.5a.75.75 0 0 0-.75.75m6 0c0 .414.336.75.75.75h2.5a.75.75 0 0 0 0-1.5h-2.5a.75.75 0 0 0-.75.75m-12-5c0 .414.336.75.75.75h2.5a.75.75 0 0 0 0-1.5H.75a.75.75 0 0 0-.75.75m6 0c0 .414.336.75.75.75h2.5a.75.75 0 0 0 0-1.5h-2.5a.75.75 0 0 0-.75.75m6 0c0 .414.336.75.75.75h2.5a.75.75 0 0 0 0-1.5h-2.5a.75.75 0 0 0-.75.75" fill-rule="evenodd" clip-rule="evenodd"></path></svg>