<svg xmlns="http://www.w3.org/2000/svg" width="16" height="16" fill="none" viewBox="0 0 16 16" cursor="unset"><g clip-path="url(#347__a)"><path fill="currentColor" d="M8 2.501a6.5 6.5 0 0 0-5.825 3.612.75.75 0 0 1-1.343-.668A8 8 0 0 1 12.445 2.35a.75.75 0 0 1-.834 1.246A6.47 6.47 0 0 0 8 2.501m6.163 2.606a.75.75 0 0 1 1.005.338A8 8 0 0 1 16 9.001a7.97 7.97 0 0 1-1.348 4.445.75.75 0 1 1-1.246-.834 6.47 6.47 0 0 0 1.094-3.61 6.5 6.5 0 0 0-.675-2.89.75.75 0 0 1 .338-1.005M11.53 6.47a.75.75 0 0 1 0 1.06L9.494 9.566a1.556 1.556 0 1 1-1.06-1.06L10.47 6.47a.75.75 0 0 1 1.06 0M.75 8.25a.75.75 0 0 1 .75.75c0 1.337.403 2.578 1.094 3.61a.75.75 0 0 1-1.246.835A7.97 7.97 0 0 1 0 9.001a.75.75 0 0 1 .75-.75" fill-rule="evenodd" clip-rule="evenodd"></path></g><defs><clipPath id="347__a"><path fill="currentColor" d="M0 0h16v16H0z"></path></clipPath></defs></svg>