<svg xmlns="http://www.w3.org/2000/svg" width="16" height="16" fill="none" viewBox="0 0 16 16" cursor="unset"><g clip-path="url(#582__a)"><path fill="currentColor" d="M0 14.25a.75.75 0 0 1 .75-.75h.748l-.003-1.144v-1.604c0-.965.783-1.749 1.749-1.75l2.005-.001q.128 0 .251.018V6.747c0-.967.784-1.75 1.75-1.75h1.998q.128 0 .25.017V2.75c0-.966.784-1.75 1.75-1.75h1.997c.967 0 1.75.784 1.75 1.75V13.5h.255a.75.75 0 0 1 0 1.5H.75a.75.75 0 0 1-.75-.75m13.495-.75V2.75a.25.25 0 0 0-.25-.25H11.25a.25.25 0 0 0-.25.25V13.5zm-3.997 0H7V6.747a.25.25 0 0 1 .25-.25h1.998a.25.25 0 0 1 .25.249zm-3.998 0v-2.75a.25.25 0 0 0-.25-.25l-2.005.002a.25.25 0 0 0-.25.25v1.603l.003 1.145z" fill-rule="evenodd" clip-rule="evenodd"></path></g><defs><clipPath id="582__a"><path fill="currentColor" d="M0 0h16v16H0z"></path></clipPath></defs></svg>