<svg xmlns="http://www.w3.org/2000/svg" width="16" height="16" fill="none" viewBox="0 0 16 16" cursor="unset"><g clip-path="url(#900__a)"><path fill="currentColor" d="M1.75 3.5a.25.25 0 0 0-.25.25V5.5h13V3.75a.25.25 0 0 0-.25-.25zM14.5 7h-13v5.25c0 .138.112.25.25.25h12.5a.25.25 0 0 0 .25-.25zM0 3.75C0 2.784.784 2 1.75 2h12.5c.966 0 1.75.784 1.75 1.75v8.5A1.75 1.75 0 0 1 14.25 14H1.75A1.75 1.75 0 0 1 0 12.25zm3 5.5a.75.75 0 0 1 .75-.75h2.5a.75.75 0 0 1 0 1.5h-2.5A.75.75 0 0 1 3 9.25" fill-rule="evenodd" clip-rule="evenodd"></path></g><defs><clipPath id="900__a"><path fill="currentColor" d="M0 0h16v16H0z"></path></clipPath></defs></svg>