<svg xmlns="http://www.w3.org/2000/svg" width="16" height="16" fill="none" viewBox="0 0 16 16" cursor="unset"><path fill="currentColor" d="M2.583 2.567a.15.15 0 0 0-.046.124c.454 5.738 5.034 10.318 10.772 10.772a.15.15 0 0 0 .124-.046.23.23 0 0 0 .067-.167v-2.006a.25.25 0 0 0-.178-.24l-1.84-.551a.25.25 0 0 0-.25.062l-.144.145c-.519.519-1.349.687-2.04.288a10.96 10.96 0 0 1-3.996-3.997c-.4-.69-.231-1.52.288-2.04l.145-.144a.25.25 0 0 0 .062-.249l-.552-1.84a.25.25 0 0 0-.24-.178H2.75c-.07 0-.13.028-.167.067m-1.541.242C.96 1.784 1.8 1 2.75 1h2.006a1.75 1.75 0 0 1 1.676 1.247l.552 1.84a1.75 1.75 0 0 1-.439 1.74l-.144.145c-.085.085-.079.18-.05.229A9.46 9.46 0 0 0 9.798 9.65c.049.028.144.033.229-.05l.144-.145a1.75 1.75 0 0 1 1.74-.44l1.84.553A1.75 1.75 0 0 1 15 11.244v2.006c0 .95-.784 1.79-1.81 1.708C6.718 14.446 1.555 9.283 1.043 2.81" fill-rule="evenodd" clip-rule="evenodd"></path></svg>