<svg xmlns="http://www.w3.org/2000/svg" width="16" height="16" fill="none" viewBox="0 0 16 16" cursor="pointer"><path fill="currentColor" d="M4.526 3.59a.25.25 0 0 1 .192-.09h6.564a.25.25 0 0 1 .192.09l2.865 3.439a.25.25 0 0 1-.015.336l-6.147 6.147a.25.25 0 0 1-.354 0L1.676 7.366a.25.25 0 0 1-.015-.336zM4.718 2c-.519 0-1.012.23-1.344.63L.508 6.068a1.75 1.75 0 0 0 .107 2.358l6.148 6.147a1.75 1.75 0 0 0 2.474 0l6.147-6.147a1.75 1.75 0 0 0 .107-2.358L12.626 2.63A1.75 1.75 0 0 0 11.282 2zm2.36 4.236a.75.75 0 1 0-1.143-.972l-.32.376-.004.005-.937 1.125a.75.75 0 0 0 .046 1.01l1.5 1.5a.75.75 0 0 0 1.06-1.06L6.265 7.204l.496-.596z" fill-rule="evenodd" clip-rule="evenodd"></path></svg>