<svg xmlns="http://www.w3.org/2000/svg" width="16" height="16" fill="none" viewBox="0 0 16 16" cursor="unset"><g clip-path="url(#274__a)"><path fill="currentColor" d="M.75.75a.75.75 0 0 1 .75.75v13a.75.75 0 0 1-1.5 0v-13A.75.75 0 0 1 .75.75m3.25 3C4 2.784 4.784 2 5.75 2h8.5c.966 0 1.75.784 1.75 1.75v1.5A1.75 1.75 0 0 1 14.25 7h-8.5A1.75 1.75 0 0 1 4 5.25zm1.75-.25a.25.25 0 0 0-.25.25v1.5c0 .138.112.25.25.25h8.5a.25.25 0 0 0 .25-.25v-1.5a.25.25 0 0 0-.25-.25zM4 10.75C4 9.784 4.784 9 5.75 9h8.5c.966 0 1.75.784 1.75 1.75v1.5A1.75 1.75 0 0 1 14.25 14h-8.5A1.75 1.75 0 0 1 4 12.25zm1.75-.25a.25.25 0 0 0-.25.25v1.5c0 .138.112.25.25.25h8.5a.25.25 0 0 0 .25-.25v-1.5a.25.25 0 0 0-.25-.25z" fill-rule="evenodd" clip-rule="evenodd"></path></g><defs><clipPath id="274__a"><path fill="currentColor" d="M0 0h16v16H0z"></path></clipPath></defs></svg>