<svg xmlns="http://www.w3.org/2000/svg" width="16" height="16" fill="none" viewBox="0 0 16 16" cursor="unset"><path fill="currentColor" d="M8.75 3.498a.75.75 0 0 0 0 1.5h5.5a.75.75 0 0 0 0-1.5zM8.75 11.503a.75.75 0 1 0 0 1.5h5.5a.75.75 0 0 0 0-1.5z"></path><path fill="currentColor" d="M2.5 10.52A.75.75 0 0 1 1 10.5c0-.276.051-.566.21-.825.164-.27.4-.433.636-.528.221-.088.45-.12.64-.133C2.67 9 2.87 9 3.045 9h.03c.177 0 .377 0 .563.014.19.014.418.045.639.133.236.095.472.258.637.528.158.259.21.548.21.825v.75a.75.75 0 0 1-.186.494L3.403 13.5H4.75a.75.75 0 0 1 0 1.5h-3a.75.75 0 0 1-.564-1.244l2.439-2.788v-.448l-.097-.01a7 7 0 0 0-.466-.01c-.195 0-.34 0-.466.01zM3.602 1.088A.75.75 0 0 1 4 1.75v4.5a.75.75 0 1 1-1.5 0V3.162l-.33.223a.75.75 0 0 1-.84-1.243l1.5-1.013a.75.75 0 0 1 .772-.041" fill-rule="evenodd" clip-rule="evenodd"></path></svg>