<svg xmlns="http://www.w3.org/2000/svg" width="16" height="16" fill="none" viewBox="0 0 16 16" cursor="unset"><path fill="currentColor" d="M5.81 2.51a.25.25 0 0 0-.31.242v10.496a.25.25 0 0 0 .31.243l4.508-1.13a.75.75 0 0 1 .364 1.454l-4.506 1.13A1.75 1.75 0 0 1 4 13.249V2.752a1.75 1.75 0 0 1 2.176-1.698l4.506 1.13a.75.75 0 0 1-.364 1.455zM1.75 2a.75.75 0 0 1 .75.75v10.496a.75.75 0 0 1-1.5 0V2.751a.75.75 0 0 1 .75-.75m9.72 3.22a.75.75 0 0 1 1.06-.002l2.255 2.25a.75.75 0 0 1 0 1.062l-2.252 2.25a.75.75 0 0 1-1.06-1.062l.97-.969H7.75a.75.75 0 0 1 0-1.5h4.691l-.97-.97a.75.75 0 0 1-.002-1.06" fill-rule="evenodd" clip-rule="evenodd"></path></svg>