<svg xmlns="http://www.w3.org/2000/svg" width="16" height="16" fill="none" viewBox="0 0 16 16" cursor="unset"><path fill="currentColor" d="M.503 3.75c0-.966.783-1.75 1.75-1.75h3.5c.966 0 1.75.784 1.75 1.75v4.5c0 2.155-.843 3.589-1.714 4.478-.43.439-.86.74-1.186.931a5 5 0 0 1-.565.285l-.013.005-.005.002h-.002s.007-.002.002 0l-.004.001a.75.75 0 0 1-1.013-.702V9h-1.75a.75.75 0 0 1-.75-.75zm4 8.133q.106-.094.214-.205c.629-.642 1.286-1.708 1.286-3.428v-4.5a.25.25 0 0 0-.25-.25h-3.5a.25.25 0 0 0-.25.25V7.5h1.75a.75.75 0 0 1 .75.75zm4-8.133c0-.966.783-1.75 1.75-1.75h3.5c.966 0 1.75.784 1.75 1.75v4.5c0 2.155-.843 3.589-1.714 4.478-.43.439-.86.74-1.186.931a5 5 0 0 1-.565.285l-.013.005-.005.002h-.002l.058-.023-.06.024a.75.75 0 0 1-1.013-.702V9h-1.75a.75.75 0 0 1-.75-.75zm4 8.133V8.25a.75.75 0 0 0-.75-.75h-1.75V3.75a.25.25 0 0 1 .25-.25h3.5a.25.25 0 0 1 .25.25v4.5c0 1.72-.657 2.787-1.286 3.428a4 4 0 0 1-.214.205" fill-rule="evenodd" clip-rule="evenodd"></path></svg>