<svg xmlns="http://www.w3.org/2000/svg" width="16" height="16" fill="none" viewBox="0 0 16 16" cursor="unset"><path fill="currentColor" d="M6.824 1.054A1.75 1.75 0 0 1 9 2.752v10.496a1.75 1.75 0 0 1-2.176 1.698l-4.5-1.129A1.75 1.75 0 0 1 1 12.12V3.88a1.75 1.75 0 0 1 1.324-1.697zM7.5 2.752a.25.25 0 0 0-.31-.243l-4.5 1.129a.25.25 0 0 0-.19.242v8.24a.25.25 0 0 0 .19.242l4.5 1.129a.25.25 0 0 0 .31-.243zM11.25 2a.75.75 0 0 1 .75.75v10.5a.75.75 0 0 1-1.5 0V2.75a.75.75 0 0 1 .75-.75m3 1a.75.75 0 0 1 .75.75v8.5a.75.75 0 0 1-1.5 0v-8.5a.75.75 0 0 1 .75-.75" fill-rule="evenodd" clip-rule="evenodd"></path></svg>